<?xml version="1.0" encoding="UTF-8" standalone="no"?>
<!-- Created with Inkscape (http://www.inkscape.org/) -->

<svg
   version="1.1"
   id="svg132"
   width="256"
   height="256"
   viewBox="0 0 256 256"
   xmlns="http://www.w3.org/2000/svg"
   xmlns_svg="http://www.w3.org/2000/svg">
  <defs
     id="defs136" />
  <g
     id="layer1"
     style="display:inline;fill:#cccccc"
     transform="translate(-115.22131,-79.18976)">
    <path
       style="display:inline;opacity:1;fill:#d7d8db;fill-opacity:1;stroke-width:7.40031"
       d="m 314.4196,228.7796 c -12.49465,1.04122 -40.38681,6.67984 -60.27539,20.70703 32.50431,-8.89689 54.72205,-7.98188 77.6289,-4.16406 -5.88088,-6.82255 -17.35351,-16.54297 -17.35351,-16.54297 z"
       id="path7953" />
    <path
       style="display:inline;opacity:1;fill:#d7d8db;fill-opacity:1;stroke-width:7.40031"
       d="m 172.81413,228.7796 c 0,0 -11.47262,9.72042 -17.35352,16.54297 22.90687,-3.81782 45.12458,-4.73283 77.62891,4.16406 -19.88858,-14.02719 -47.78074,-19.66581 -60.27539,-20.70703 z"
       id="path7951" />
    <path
       style="display:inline;opacity:1;fill:#d7d8db;fill-opacity:1;stroke-width:7.40031"
       d="m 243.61686,254.0003 c 27.1031,-27.21442 83.99219,-29.15429 83.99219,-29.15429 0,0 -21.7741,-22.12623 -27.41797,-26.95703 -39.05451,8.9667 -55.64869,47.2031 -56.57422,56.11132 z"
       id="path7949" />
    <path
       style="display:inline;opacity:1;fill:#d7d8db;fill-opacity:1;stroke-width:7.40031"
       d="m 211.65983,185.38312 c 16.68844,17.83373 29.28694,39.10313 32.06836,65.93554 3.76307,-26.99603 11.78045,-41.06723 34.19531,-64.79101 -9.98034,4.58114 -26.34252,13.74348 -33.70508,29.12304 -6.55861,-15.33464 -18.16071,-23.72308 -32.55859,-30.26757 z"
       id="path7945" />
    <path
       style="display:inline;opacity:1;fill:#d7d8db;fill-opacity:1;stroke-width:7.40031"
       d="m 243.81022,182.27374 a 9.5713348,9.5713348 0 0 0 -9.57226,9.57227 9.5713348,9.5713348 0 0 0 9.57226,9.57031 9.5713348,9.5713348 0 0 0 9.57031,-9.57031 9.5713348,9.5713348 0 0 0 -9.57031,-9.57227 z"
       id="path7943" />
    <path
       style="display:inline;opacity:1;fill:#d7d8db;fill-opacity:1;stroke-width:7.40031"
       d="m 307.47819,181.94757 c -27.75728,5.38627 -47.20176,31.00478 -53.0918,44.09375 11.69827,-15.87036 34.52146,-30.69906 49.41016,-33.48047 1.12484,-3.55858 2.25892,-7.16578 3.68164,-10.61328 z"
       id="path7941" />
    <path
       style="display:inline;opacity:1;fill:#d7d8db;fill-opacity:1;stroke-width:7.40031"
       d="m 179.75553,181.94757 c 1.42272,3.4475 2.55682,7.0547 3.68164,10.61328 14.8887,2.78141 37.71189,17.61011 49.41016,33.48047 -5.89002,-13.08897 -25.3345,-38.70748 -53.0918,-44.09375 z"
       id="path1451" />
    <path
       style="display:inline;opacity:1;fill:#d7d8db;fill-opacity:1;stroke-width:7.40031"
       d="m 187.04264,197.88898 c -5.64385,4.8308 -27.41797,26.95703 -27.41797,26.95703 0,0 56.88911,1.93987 83.99219,29.15429 -0.92553,-8.90822 -17.51971,-47.14462 -56.57422,-56.11132 z"
       id="path7947" />
    <path
       style="display:inline;fill:#e3c25e;fill-opacity:1;stroke-width:7.43826"
       d="M 246.44889,99.031557 A 107.59315,107.59315 0 0 0 138.85514,206.62531 107.59315,107.59315 0 0 0 246.44889,314.21906 107.59315,107.59315 0 0 0 337.66764,263.49835 97.676704,97.676704 0 0 1 257.30241,305.95538 97.676704,97.676704 0 0 1 159.62663,208.2796 97.676704,97.676704 0 0 1 257.30241,110.60187 97.676704,97.676704 0 0 1 350.0778,177.81476 107.59315,107.59315 0 0 0 246.44889,99.031557 Z"
       id="path255" />
    <path
       style="display:inline;fill:#98494c;fill-opacity:1;stroke-width:7.43826"
       d="m 254.2946,91.316713 c -34.74279,0.07269 -67.62037,15.728307 -89.57618,42.654297 20.68862,-23.19661 50.28114,-36.479068 81.36329,-36.519531 60.31657,-3.9e-5 109.21293,48.896321 109.21289,109.212891 4e-5,60.31657 -48.89632,109.21293 -109.21289,109.21289 -36.43797,-0.049 -70.45139,-18.2674 -90.6836,-48.57227 20.97125,34.58142 58.45316,55.72925 98.89649,55.79883 64.00611,-7e-4 115.89296,-51.88841 115.89257,-115.89453 -7e-4,-64.00534 -51.88723,-115.891881 -115.89257,-115.892577 z"
       id="path253" />
    <path
       style="display:inline;fill:#00171f;fill-opacity:1;stroke-width:7.43826"
       d="m 246.05046,79.18976 c -70.84214,4.25e-4 -129.57966,58.08364 -129.58008,128.92578 4.3e-4,70.84214 58.73794,127.61676 129.58008,127.61719 32.96411,-0.1092 64.62098,-12.90498 88.40234,-35.73242 -22.10392,18.81481 -50.1759,29.16044 -79.20313,29.18945 -67.59023,3.4e-4 -120.42026,-54.46641 -120.41992,-122.05664 -3.4e-4,-67.59023 52.82969,-122.709322 120.41992,-122.708985 24.25425,0.0012 47.96128,7.209204 68.11133,20.708985 C 301.09897,88.305969 273.95658,79.197705 246.05046,79.18976 Z"
       id="path353" />
    <path
       style="display:inline;opacity:1;fill:#e3c25e;fill-opacity:1;stroke-width:7.40031"
       d="m 286.75358,179.15655 v 3.76172 h 3.76172 v -3.76172 z"
       id="path1600" />
    <path
       style="display:inline;opacity:1;fill:#98494c;fill-opacity:1;stroke-width:7.40031"
       d="m 272.19108,171.46515 v 8.50781 h 8.50781 v -8.50781 z"
       id="path1598" />
    <path
       style="display:inline;opacity:1;fill:#000000;fill-opacity:1;stroke-width:7.40031"
       d="m 262.7028,168.35773 v 4.2539 h 4.2539 v -4.2539 z"
       id="path1596" />
    <path
       style="display:inline;opacity:1;fill:#98494c;fill-opacity:1;stroke-width:7.40031"
       d="m 295.91569,162.4671 v 7.36328 h 7.36133 v -7.36328 z"
       id="path1594" />
    <path
       style="display:inline;opacity:1;fill:#000000;fill-opacity:1;stroke-width:7.40031"
       d="m 281.35319,158.21319 v 6.38086 h 6.38086 v -6.38086 z"
       id="path1592" />
    <path
       style="display:inline;opacity:1;fill:#e3c25e;fill-opacity:1;stroke-width:7.40031"
       d="m 256.82916,159.836 c -2.85827,0 -12.24036,0.0139 -16.37826,0.0139 v 16.36133 h 16.36133"
       id="path1590" />
    <path
       style="display:inline;opacity:1;fill:#e3c25e;fill-opacity:1;stroke-width:7.40031"
       d="m 274.97233,150.19562 v 5.89062 h 5.89062 v -5.89062 z"
       id="rect524" />
    <rect
       style="fill:#98494c;fill-opacity:1;stroke-width:7.40031"
       id="rect2829"
       width="9.7043066"
       height="9.7043066"
       x="255.06902"
       y="151.58774" />
  </g>
</svg>
