<?xml version="1.0" encoding="UTF-8" standalone="no"?>
<!-- Created with Inkscape (http://www.inkscape.org/) -->

<svg
   version="1.1"
   id="svg132"
   width="253.7168"
   height="256.54297"
   viewBox="0 0 253.7168 256.54297"
   xmlns="http://www.w3.org/2000/svg"
   xmlnsSvg="http://www.w3.org/2000/svg">
  <defs
     id="defs136" />
  <g
     id="layer1"
     style="display:inline;fill:#cccccc"
     transform="translate(-115.22131,-79.18976)">
    <path
       id="path1451"
       style="display:inline;opacity:1;fill:#000000;fill-opacity:1;stroke-width:7.40031"
       d="m 316.53189,186.5188 c -1.42272,3.4475 -2.55682,7.0547 -3.68164,10.61328 -14.8887,2.78141 -37.71189,17.61011 -49.41016,33.48047 5.89002,-13.08897 25.3345,-38.70748 53.0918,-44.09375 z m -127.72266,0 c 27.75728,5.38627 47.20176,31.00478 53.0918,44.09375 -11.69827,-15.87036 -34.52146,-30.69906 -49.41016,-33.48047 -1.12484,-3.55858 -2.25892,-7.16578 -3.68164,-10.61328 z m 63.66797,0.32617 a 9.5713348,9.5713348 0 0 1 9.57226,9.57227 9.5713348,9.5713348 0 0 1 -9.57226,9.57031 9.5713348,9.5713348 0 0 1 -9.57031,-9.57031 9.5713348,9.5713348 0 0 1 9.57031,-9.57227 z m 32.15039,3.10938 c -16.68844,17.83373 -29.28694,39.10313 -32.06836,65.93554 -3.76307,-26.99603 -11.78045,-41.06723 -34.19531,-64.79101 9.98034,4.58114 26.34252,13.74348 33.70508,29.12304 6.55861,-15.33464 18.16071,-23.72308 32.55859,-30.26757 z m 24.61719,12.50586 c 5.64385,4.8308 27.41797,26.95703 27.41797,26.95703 0,0 -56.88911,1.93987 -83.99219,29.15429 0.92553,-8.90822 17.51971,-47.14462 56.57422,-56.11132 z m -56.57422,56.11132 c -27.1031,-27.21442 -83.99219,-29.15429 -83.99219,-29.15429 0,0 21.7741,-22.12623 27.41797,-26.95703 39.05451,8.9667 55.64869,47.2031 56.57422,56.11132 z m 70.80273,-25.2207 c 0,0 11.47262,9.72042 17.35352,16.54297 -22.90687,-3.81782 -45.12458,-4.73283 -77.62891,4.16406 19.88858,-14.02719 47.78074,-19.66581 60.27539,-20.70703 z m -141.60547,0 c 12.49465,1.04122 40.38681,6.67984 60.27539,20.70703 -32.50431,-8.89689 -54.72205,-7.98188 -77.6289,-4.16406 5.88088,-6.82255 17.35351,-16.54297 17.35351,-16.54297 z"
       transform="matrix(-1,0,0,1,495.03835,-4.571227)" />
    <path
       style="display:inline;fill:#ffcc00;fill-opacity:1;stroke-width:7.43826"
       d="M 245.19982,99.031557 A 107.59315,107.59315 0 0 0 137.60607,206.62531 107.59315,107.59315 0 0 0 245.19982,314.21906 107.59315,107.59315 0 0 0 336.41857,263.49835 97.676704,97.676704 0 0 1 256.05334,305.95538 97.676704,97.676704 0 0 1 158.37756,208.2796 97.676704,97.676704 0 0 1 256.05334,110.60187 97.676704,97.676704 0 0 1 348.82873,177.81476 107.59315,107.59315 0 0 0 245.19982,99.031557 Z"
       id="path255" />
    <path
       style="display:inline;fill:#ff0000;fill-opacity:1;stroke-width:7.43826"
       d="m 253.04553,91.316713 c -34.74279,0.07269 -67.62037,15.728307 -89.57618,42.654297 20.68862,-23.19661 50.28114,-36.479068 81.36329,-36.519531 60.31657,-3.9e-5 109.21293,48.896321 109.21289,109.212891 4e-5,60.31657 -48.89632,109.21293 -109.21289,109.21289 -36.43797,-0.049 -70.45139,-18.2674 -90.6836,-48.57227 20.97125,34.58142 58.45316,55.72925 98.89649,55.79883 64.00611,-7e-4 115.89296,-51.88841 115.89257,-115.89453 -7e-4,-64.00534 -51.88723,-115.891881 -115.89257,-115.892577 z"
       id="path253" />
    <path
       style="display:inline;fill:#000000;fill-opacity:1;stroke-width:7.43826"
       d="m 244.80139,79.18976 c -70.84214,4.25e-4 -129.57966,58.08364 -129.58008,128.92578 4.3e-4,70.84214 58.73794,127.61676 129.58008,127.61719 32.96411,-0.1092 64.62098,-12.90498 88.40234,-35.73242 -22.10392,18.81481 -50.1759,29.16044 -79.20313,29.18945 -67.59023,3.4e-4 -120.42026,-54.46641 -120.41992,-122.05664 -3.4e-4,-67.59023 52.82969,-122.709322 120.41992,-122.708985 24.25425,0.0012 47.96128,7.209204 68.11133,20.708985 C 299.8499,88.305969 272.70751,79.197705 244.80139,79.18976 Z"
       id="path353" />
    <path
       id="rect524"
       style="display:inline;opacity:1;fill:#000000;fill-opacity:1;stroke-width:7.40031"
       d="m 285.01253,155.75845 v 5.89062 h 5.89062 v -5.89062 z m -18.32422,1.96484 v 7.68945 h -16.19727 v 16.36133 h 16.36133 V 166.2311 h 8.34375 v -8.50781 z m 24.70508,6.05273 v 6.38086 h 6.38086 v -6.38086 z m 14.5625,4.25391 v 7.36328 h 7.36133 v -7.36328 z m -33.21289,5.89063 v 4.2539 h 4.2539 v -4.2539 z m 9.48828,3.10742 v 8.50781 h 8.50781 v -8.50781 z m 14.5625,7.6914 v 3.76172 h 3.76172 v -3.76172 z"
       transform="translate(-11.289271,-5.562827)" />
  </g>
</svg>
